<svg width="40" height="40" viewBox="0 0 40 40" fill="none" xmlns="http://www.w3.org/2000/svg">
<g id="Linkedin" filter="url(#filter0_d_951_3226)">
<g id="Linked in">
<path id="XMLID 108" d="M31.9989 16C31.9989 9.37234 26.6264 4 19.9998 4C13.3711 4 7.99908 9.37218 7.99908 16C7.99908 22.6268 13.3713 28 19.9998 28C26.6266 28 31.9989 22.6268 31.9989 16Z" fill="#3D83D9"/>
<g id="Group">
<path id="Vector" d="M17.0633 13.0715H14.2855V21.0103H17.0633V13.0715Z" fill="white"/>
<path id="Vector_2" d="M15.6745 9.10205C14.8044 9.10205 14.1232 9.90166 14.3194 10.8024C14.4334 11.3256 14.8602 11.7462 15.3852 11.8516C16.2806 12.0314 17.0633 11.3537 17.0633 10.491C17.0633 9.72519 16.4427 9.10205 15.6745 9.10205Z" fill="white"/>
<path id="Vector_3" d="M26.1929 15.5101C26.0061 14.0138 25.2576 13.0713 23.235 13.0713C21.7994 13.0713 21.2285 13.2952 20.8993 13.9219V13.0713H18.6505V21.0101H20.9648V16.8544C20.9648 15.817 21.1613 15.0335 22.4441 15.0335C23.7084 15.0335 23.81 15.9978 23.81 16.9218V21.0102H26.1931C26.1929 21.0102 26.2371 15.8598 26.1929 15.5101Z" fill="white"/>
</g>
</g>
</g>
<defs>
<filter id="filter0_d_951_3226" x="-0.000915527" y="0" width="39.9998" height="40" filterUnits="userSpaceOnUse" color-interpolation-filters="sRGB">
<feFlood flood-opacity="0" result="BackgroundImageFix"/>
<feColorMatrix in="SourceAlpha" type="matrix" values="0 0 0 0 0 0 0 0 0 0 0 0 0 0 0 0 0 0 127 0" result="hardAlpha"/>
<feOffset dy="4"/>
<feGaussianBlur stdDeviation="4"/>
<feColorMatrix type="matrix" values="0 0 0 0 0 0 0 0 0 0.0627451 0 0 0 0 0.160784 0 0 0 0.1 0"/>
<feBlend mode="normal" in2="BackgroundImageFix" result="effect1_dropShadow_951_3226"/>
<feBlend mode="normal" in="SourceGraphic" in2="effect1_dropShadow_951_3226" result="shape"/>
</filter>
</defs>
</svg>
